<svg width="2319" height="2159" xmlns="http://www.w3.org/2000/svg" xmlns:xlink="http://www.w3.org/1999/xlink" xml:space="preserve" overflow="hidden"><g transform="translate(-752 -207)"><path d="M2140.75 1144.2C2140.75 1178.55 2196.95 1206.65 2265.64 1206.65 2334.33 1206.65 2390.53 1178.55 2390.53 1144.2ZM1557.92 1144.2C1557.92 1178.55 1614.12 1206.65 1682.81 1206.65 1751.5 1206.65 1807.7 1178.55 1807.7 1144.2ZM1974.22 759.105C1985.67 759.105 1995.04 768.472 1995.04 779.921 1995.04 791.37 1985.67 800.737 1974.22 800.737 1962.78 800.737 1953.41 791.37 1953.41 779.921 1953.41 768.472 1962.78 759.105 1974.22 759.105ZM1974.22 634.209C1956.53 634.209 1943 647.74 1943 665.433L1943 725.8C1933.63 731.004 1925.31 739.33 1920.1 748.697L1651.59 748.697C1633.89 748.697 1620.36 762.228 1620.36 779.921 1620.36 794.493 1630.77 808.023 1645.34 810.105L1586.02 1112.98 1628.69 1112.98 1674.48 875.675 1733.81 1112.98 1776.48 1112.98 1700.5 811.145 1919.06 811.145C1924.27 820.513 1932.59 828.839 1941.96 834.043L1941.96 1362.77 1869.11 1362.77C1857.66 1362.77 1848.29 1372.14 1848.29 1383.59L1848.29 1404.4 1724.44 1404.4 1724.44 1466.85 2224.01 1466.85 2224.01 1404.4 2099.12 1404.4 2099.12 1383.59C2099.12 1372.14 2089.75 1362.77 2078.3 1362.77L2005.45 1362.77 2005.45 834.043C2014.81 828.839 2023.14 820.513 2028.34 811.145L2228.17 811.145 2169.89 1112.98 2212.56 1112.98 2258.35 875.675 2316.64 1112.98 2359.31 1112.98 2283.33 811.145 2296.86 811.145C2314.56 811.145 2328.09 797.615 2328.09 779.921 2328.09 762.228 2314.56 748.697 2296.86 748.697L2028.34 748.697C2023.14 739.33 2014.81 731.004 2005.45 725.8L2005.45 665.433C2005.45 647.74 1991.92 634.209 1974.22 634.209ZM2512.77 210.964C2515.5 209.698 2517.75 210.971 2519.33 215.397 2532.53 252.388 2546.49 306.5 2580.76 378.728 2586.67 391.207 2580.42 437.137 2588.46 450.578 2596.68 464.33 2613.18 451.919 2628.85 457.729 2643.5 463.195 2657.18 486.779 2668.42 500.771 2686.3 522.979 2663.13 599.333 2683.62 623.088 2711.67 655.644 2697.54 757.198 2729.99 789.066 2742.92 801.752 2758.97 779.337 2772.72 791.129 2792.39 807.974 2833.09 835.064 2846.12 857.891 2855.61 874.565 2836.7 887.697 2851.76 899.042 2876.92 917.95 2884.14 994.063 2909.65 1010.56 2920.1 1017.3 2912.02 988.804 2938.56 1007.68 2958.08 1021.57 2950.35 1062.3 2963.65 1080.08 2983.76 1106.89 3029.52 1160.38 3045.78 1184.59 3082.25 1238.9 3061.77 1320.04 3061.77 1348.47 3061.77 1476.22 3020.79 1572 2968.36 1660.62 2956.09 1681.35 2940.69 1686.1 2925.94 1704.94 2891.8 1748.6 2905.76 1795.49 2858.87 1830.52 2817.93 1861.12 2809.09 1914.4 2807.44 1969.78 2806.65 1995.53 2750.69 1965.08 2735.08 1981.03 2726.14 1990.14 2694.62 1977.42 2682.17 1984.4 2654.95 1999.66 2631.88 2035.34 2600.05 2050.99 2574.61 2063.5 2556.73 1994.19 2524.86 1998.59 2470.69 2006.09 2409.39 1982.3 2343.49 1987.39 2312.69 1989.76 2301.93 1923.92 2270.44 1928.36 2226.33 1934.58 2271.81 1768.26 2231.42 1799.89 2186.76 1834.85 2206.6 1723.98 2162.94 1723.98 2144.14 1723.98 2189.27 1620.36 2170.4 1620.19 2162.29 1620.12 2058.37 1735.88 2053.76 1729.17 2039.29 1708.17 2026.7 1658.63 2001.03 1637 1982.98 1621.77 1973.87 1598.23 1954.96 1585.13 1924.05 1563.71 1899.58 1577.01 1866.75 1560.65 1846.91 1550.78 1827.08 1536.24 1807.04 1537.2 1776.65 1538.65 1757.09 1545.39 1713.91 1548.86 1643.43 1554.57 1594.76 1598.5 1524.66 1597.37 1466.15 1596.4 1417.37 1718.03 1360.72 1710.02 1298.74 1701.26 1249.54 1724.77 1205.57 1724.19 1167.72 1723.71 1135.27 1825.81 1101 1810.2 1052.05 1787.89 976.794 1818.49 936.6 1764.03 917.741 1738.45 979.785 1742.41 964.463 1709.58 955.233 1689.81 966.247 1667.74 965.384 1642.3 964.724 1622.77 952.816 1600.12 945.229 1581.96 937.436 1563.33 919.295 1547.86 910.831 1525.65 904.038 1507.85 907.5 1483.71 897.294 1465.25 882.48 1438.44 856.642 1412.24 842.008 1386.46 834.483 1373.19 837.109 1358.47 829.227 1346.34 806.301 1311.06 768.404 1295.28 756.382 1265.48 746.295 1240.49 825.995 1284.52 829.454 1266.06 831.932 1252.86 808.229 1236.53 794.753 1210.99 777.971 1179.19 770.298 1137.83 770.298 1124.87 770.298 1092.08 762.284 1031.84 773.333 1007.13 784.327 982.547 801.711 997.535 822.241 980.862 853.277 955.663 883.171 923.554 928.033 901.552 943.548 893.954 966.635 895.329 983.772 888.454 1050.22 861.741 1119.46 830.32 1183.06 797.454 1213.07 781.916 1221.56 728.354 1250.19 710.718 1262.74 702.983 1227.3 665.786 1239.71 657.673 1257.9 645.812 1244.14 620.304 1262.26 607.618 1276.56 597.614 1314.69 659.082 1328.75 648.356 1337.82 641.412 1314.86 580.94 1323.76 573.515 1335.28 563.889 1376.05 599.333 1387.57 589.398 1396.54 581.628 1360.2 525.764 1369.07 517.685 1415.86 474.884 1478.49 439.646 1530.95 399.836 1546.28 388.182 1598.99 475.228 1614.56 464.089 1639.58 446.144 1679.19 498.88 1702.46 475.709 1721.71 456.526 1662.65 448.481 1680.66 422.801 1704.59 388.801 1724.46 341.428 1764.82 306.293 1792.05 282.572 1835.12 312.963 1867.71 297.802 1878.09 292.989 1881.98 276.659 1867.33 264.661 1853.41 253.282 1820.92 246.303 1829 237.709 1840.31 225.642 1905.73 260.433 1943.99 258.336 1963.18 257.27 1984.21 272.981 1989.54 272.981 2007.42 272.981 2030.52 291.854 2048.19 292.37 2060.67 292.714 2065.76 274.562 2078.1 275.147 2105.43 276.453 2116.81 285.357 2143.55 287.901 2168.99 290.273 2157.37 323.242 2140.53 341.875 2131.86 351.466 2082.4 368.277 2096.94 387.047 2111.75 406.127 2046.02 453.363 2068.85 467.492 2158.2 522.773 2237.57 625.46 2343.56 652.963 2429.47 675.274 2436.24 485.988 2445.56 400.421 2450.7 353.134 2493.64 219.83 2512.77 210.964Z" stroke="#156082" stroke-width="7.45351" stroke-miterlimit="8" fill="#156082" fill-rule="evenodd"/><path d="M2681.02 2234.9C2681.02 2270.31 2659.08 2293.05 2640.93 2317.02 2625.13 2337.92 2615.38 2362.44 2584.87 2362.44 2562.58 2362.44 2563.58 2343.98 2554.66 2334.32 2537.3 2315.59 2524.53 2293.67 2524.53 2249.9 2524.53 2209.04 2471.11 2151.02 2509.17 2148.48 2532.79 2146.88 2584.25 2188.01 2609.39 2188.01 2634.98 2188.01 2662.84 2170.06 2673.48 2170.4 2690.08 2170.95 2681.02 2194.52 2681.02 2234.9Z" stroke="#156082" stroke-width="7.45351" stroke-miterlimit="8" fill="#156082" fill-rule="evenodd"/></g></svg>